HIERARCHY
ROOT Hips
{
	OFFSET 0.000000 0.000000 0.000000
	CHANNELS 6 Xposition Yposition Zposition Yrotation Xrotation Zrotation
	JOINT Chest
	{
		OFFSET 0.000000 -0.009281 11.569106
		CHANNELS 3 Yrotation Xrotation Zrotation
		JOINT Chest2
		{
			OFFSET -0.000000 0.016865 9.269641
			CHANNELS 3 Yrotation Xrotation Zrotation
			JOINT Chest3
			{
				OFFSET -0.000000 0.000001 8.374491
				CHANNELS 3 Yrotation Xrotation Zrotation
				JOINT Chest4
				{
					OFFSET -0.000000 0.000001 8.374493
					CHANNELS 3 Yrotation Xrotation Zrotation
					JOINT Neck
					{
						OFFSET -0.000000 0.000002 12.152554
						CHANNELS 3 Yrotation Xrotation Zrotation
						JOINT Head
						{
							OFFSET -0.000000 0.040101 7.802319
							CHANNELS 3 Yrotation Xrotation Zrotation
							End Site
							{
								OFFSET -0.000000 0.020947 14.853096
							}
						}
					}
					JOINT RightCollar
					{
						OFFSET 2.894404 0.000001 6.791374
						CHANNELS 3 Yrotation Xrotation Zrotation
						JOINT RightShoulder
						{
							OFFSET 13.574684 0.000001 0.000000
							CHANNELS 3 Yrotation Xrotation Zrotation
							JOINT RightElbow
							{
								OFFSET 23.923903 0.000002 0.000000
								CHANNELS 3 Yrotation Xrotation Zrotation
								JOINT RightWrist
								{
									OFFSET 19.846718 0.012767 0.000000
									CHANNELS 3 Yrotation Xrotation Zrotation
									End Site
									{
										OFFSET 14.973145 0.000001 0.000000
									}
								}
							}
						}
					}
					JOINT LeftCollar
					{
						OFFSET -2.894404 0.000001 6.791374
						CHANNELS 3 Yrotation Xrotation Zrotation
						JOINT LeftShoulder
						{
							OFFSET -13.574684 -0.000001 0.000000
							CHANNELS 3 Yrotation Xrotation Zrotation
							JOINT LeftElbow
							{
								OFFSET -23.923903 -0.000002 0.000000
								CHANNELS 3 Yrotation Xrotation Zrotation
								JOINT LeftWrist
								{
									OFFSET -19.846718 0.012763 0.000000
									CHANNELS 3 Yrotation Xrotation Zrotation
									End Site
									{
										OFFSET -14.973145 -0.000001 0.000000
									}
								}
							}
						}
					}
				}
			}
		}
	}
	JOINT RightHip
	{
		OFFSET 9.469263 0.004643 0.045487
		CHANNELS 3 Yrotation Xrotation Zrotation
		JOINT RightKnee
		{
			OFFSET 0.000000 0.002661 -40.478676
			CHANNELS 3 Yrotation Xrotation Zrotation
			JOINT RightAnkle
			{
				OFFSET 0.000000 0.049106 -35.224068
				CHANNELS 3 Yrotation Xrotation Zrotation
				JOINT RightToe
				{
					OFFSET -0.000001 12.539529 -6.151390
					CHANNELS 3 Yrotation Xrotation Zrotation
					End Site
					{
						OFFSET -0.000001 5.044994 -1.291870
					}
				}
			}
		}
	}
	JOINT LeftHip
	{
		OFFSET -9.469263 0.004641 0.045487
		CHANNELS 3 Yrotation Xrotation Zrotation
		JOINT LeftKnee
		{
			OFFSET 0.000000 0.002661 -40.478676
			CHANNELS 3 Yrotation Xrotation Zrotation
			JOINT LeftAnkle
			{
				OFFSET 0.000000 0.049106 -35.224068
				CHANNELS 3 Yrotation Xrotation Zrotation
				JOINT LeftToe
				{
					OFFSET -0.000001 12.539529 -6.151390
					CHANNELS 3 Yrotation Xrotation Zrotation
					End Site
					{
						OFFSET -0.000001 5.044994 -1.291870
					}
				}
			}
		}
	}
}
MOTION
Frames: 8
Frame Time: 0.016667
11.497359 6.373707 83.070518 -5.879163 -5.332708 -120.804258 0.243512 -0.758334 0.611132 0.112006 -0.335331 0.274009 0.112006 -0.335331 0.274013 0.084155 -0.251448 0.205569 2.598555 -16.600186 -16.681516 -0.878957 4.311968 -29.987037 -3.496733 0.596402 -5.421277 76.016768 22.923090 74.054229 13.773747 21.790009 39.752623 -67.755968 26.253652 20.998392 -13.883131 -7.456239 -16.977002 -65.114946 -19.061002 -49.600670 -22.094526 -3.129713 -34.497182 61.304001 10.653451 -20.576423 0.966998 -9.360770 1.815732 -0.680074 -3.021466 2.390251 1.601515 4.522104 3.895801 -0.006452 -0.001347 0.001834 0.355018 -12.032492 5.014526 0.598415 -0.901882 -0.078483 0.113882 5.345406 3.876137 0.020142 -0.024632 -0.001801 
11.487584 6.376648 83.072357 -5.873779 -5.338146 -120.803479 0.236699 -0.755170 0.633696 0.108990 -0.333846 0.284136 0.108990 -0.333845 0.284131 0.081898 -0.250333 0.213158 2.621376 -16.616267 -16.696946 -0.838736 4.285361 -30.005605 -3.516704 0.557334 -5.445981 76.109522 22.797930 74.261833 15.641386 23.102451 40.721444 -67.969419 26.296595 19.634429 -13.883225 -7.463341 -16.986032 -65.234017 -18.968617 -49.572516 -23.147600 -2.461585 -34.992715 60.796975 11.163520 -18.567214 0.980306 -9.357418 1.827469 -0.685480 -3.008748 2.369349 1.609704 4.503761 3.924894 -0.010261 -0.000317 0.002865 0.364969 -12.022227 5.049781 0.595452 -0.903042 -0.078899 0.108412 5.342854 3.869940 0.019382 -0.025635 -0.002681 
11.477245 6.378311 83.073959 -5.867236 -5.345044 -120.799655 0.229338 -0.743913 0.646130 0.105922 -0.328898 0.289974 0.105922 -0.328897 0.289974 0.079597 -0.246623 0.217535 2.640965 -16.639468 -16.709185 -0.801893 4.245517 -30.018480 -3.526843 0.523140 -5.441393 76.182748 22.718695 74.420013 17.495842 24.249268 41.740522 -67.991617 26.314728 18.366756 -13.902287 -7.483660 -16.979077 -65.328027 -18.861294 -49.571372 -24.253527 -1.722415 -35.489386 60.397860 11.796427 -16.547610 0.990123 -9.358046 1.825265 -0.687544 -2.989283 2.357972 1.621899 4.483341 3.965322 -0.014834 0.000324 0.004193 0.381210 -12.013407 5.042912 0.591930 -0.903464 -0.053352 0.101560 5.340849 3.819351 0.017546 -0.026837 -0.003934 
11.469788 6.380897 83.075386 -5.861761 -5.352748 -120.790024 0.219950 -0.732957 0.656217 0.102308 -0.324023 0.294566 0.102308 -0.324024 0.294563 0.076886 -0.242969 0.220976 2.660791 -16.665855 -16.722467 -0.764259 4.199756 -30.032779 -3.537339 0.502816 -5.436154 76.093184 22.635546 74.463241 19.429943 25.409419 42.901631 -67.907284 26.274343 17.069517 -13.921576 -7.489325 -16.981524 -65.368585 -18.817733 -49.557257 -25.399996 -0.822156 -36.093564 59.931030 12.339838 -14.610473 1.001777 -9.363785 1.808880 -0.679734 -2.962205 2.347628 1.624348 4.461027 3.940810 -0.019019 -0.000813 0.002819 0.392338 -12.007950 5.034608 0.590243 -0.896291 -0.046347 0.100942 5.335006 3.818788 0.015856 -0.028731 -0.003505 
11.461388 6.382531 83.076645 -5.856144 -5.353599 -120.780667 0.203204 -0.737982 0.663247 0.096650 -0.325293 0.298042 0.096650 -0.325293 0.298045 0.072645 -0.243922 0.223579 2.683650 -16.679225 -16.731366 -0.722546 4.179130 -30.039653 -3.552864 0.521723 -5.449438 75.925844 22.535702 74.461630 21.381176 26.532297 44.146385 -67.876159 26.232156 15.614373 -13.916019 -7.478696 -17.004357 -65.343880 -18.809156 -49.564091 -26.576003 0.140449 -36.790192 59.480962 12.834028 -12.736397 0.996488 -9.366735 1.795009 -0.673932 -2.933372 2.315633 1.640226 4.442910 4.023302 -0.020957 -0.007080 0.005520 0.405563 -12.005573 5.027745 0.586106 -0.887343 -0.067401 0.097951 5.344227 3.818258 0.013939 -0.041230 -0.005749 
11.453781 6.384687 83.078079 -5.844036 -5.353807 -120.777170 0.188496 -0.748909 0.676492 0.088038 -0.331160 0.303749 0.088038 -0.331159 0.303749 0.066193 -0.248326 0.227852 2.705111 -16.683108 -16.740056 -0.685342 4.175535 -30.047839 -3.549750 0.558609 -5.463625 75.806316 22.480377 74.505438 23.211331 27.506832 45.323332 -67.872362 26.215919 14.154265 -13.888838 -7.441932 -17.035844 -65.281227 -18.789458 -49.586706 -27.776163 1.047931 -37.537852 58.942750 13.442103 -10.852576 1.011399 -9.361383 1.803681 -0.673264 -2.913263 2.295098 1.641777 4.419776 4.006948 -0.023482 -0.002146 0.002827 0.411408 -11.988721 5.029477 0.582862 -0.877035 -0.072078 0.097713 5.319635 3.833579 0.014715 -0.028934 -0.003576 
11.445180 6.385940 83.080215 -5.838927 -5.354163 -120.778044 0.164546 -0.759955 0.694199 0.077002 -0.336401 0.311577 0.077001 -0.336402 0.311578 0.057923 -0.252260 0.233725 2.723737 -16.687528 -16.747653 -0.652849 4.170498 -30.054909 -3.541962 0.600116 -5.500067 75.805551 22.432131 74.611989 24.914616 28.322752 46.395846 -67.823799 26.295207 12.850047 -13.844994 -7.424860 -17.065270 -65.222603 -18.723304 -49.622595 -29.068465 1.868596 -38.326924 58.508363 14.162887 -8.887922 1.015466 -9.356149 1.823076 -0.678264 -2.902720 2.260434 1.656615 4.404488 4.010466 -0.025275 -0.001349 0.003749 0.419023 -11.982364 5.046793 0.580033 -0.869430 -0.076389 0.092382 5.308881 3.832520 0.013483 -0.024809 -0.003879 
11.437791 6.387378 83.082191 -5.826512 -5.354599 -120.788234 0.136728 -0.759166 0.724827 0.064738 -0.336229 0.325088 0.064738 -0.336229 0.325089 0.048733 -0.252138 0.243847 2.740243 -16.697198 -16.758352 -0.624046 4.154912 -30.067760 -3.520557 0.602966 -5.544789 75.852147 22.407875 74.757288 26.538808 29.042989 47.445957 -67.703827 26.410707 11.582168 -13.808301 -7.420446 -17.099040 -65.204592 -18.627987 -49.633397 -30.456285 2.683580 -39.170739 58.192194 14.786963 -6.924337 1.027030 -9.345178 1.831987 -0.686701 -2.889082 2.249250 1.669836 4.387640 4.027842 -0.027683 -0.001697 0.003551 0.425927 -11.969232 5.069724 0.578652 -0.865185 -0.081489 0.087701 5.302392 3.822848 0.013302 -0.022519 -0.003778 
